<?xml version="1.0" encoding="UTF-8"?>
<svg id="Camada_1" data-name="Camada 1" xmlns="http://www.w3.org/2000/svg" viewBox="0 0 855.44 900">
  <defs>
    <style>
      .cls-1 {
        fill: #c7ed08;
        stroke-width: 0px;
      }
    </style>
  </defs>
  <path class="cls-1" d="m665.41,443.85c36.02-36.89,44.74-94.57,17.68-141.4-27.06-46.83-81.39-68.09-131.34-55.3-4.58,1.17-9.23-1.51-10.51-6.06-13.94-49.64-59.53-86.03-113.62-86.01-54.09.02-99.66,36.44-113.56,86.09-1.28,4.56-5.92,7.24-10.51,6.07-49.96-12.75-104.27,8.54-131.3,55.4-27.03,46.85-18.27,104.53,17.77,141.39,3.31,3.38,3.31,8.75,0,12.14-36.02,36.89-44.74,94.57-17.67,141.4,27.06,46.83,81.39,68.09,131.34,55.3,4.58-1.17,9.23,1.51,10.51,6.06,13.94,49.64,59.53,86.03,113.62,86.01,54.09-.02,99.66-36.44,113.56-86.09,1.28-4.56,5.92-7.24,10.51-6.07,49.96,12.75,104.27-8.54,131.3-55.4,27.03-46.85,18.27-104.53-17.78-141.39-3.31-3.38-3.31-8.75,0-12.14Zm-455.67-91.58c.03-.32.07-.65.13-.97,4.3-24.6,21.19-42.64,43.42-48.57,16.24-4.33,29.82-.86,38.34,2.81,16.42,7.07,35.23,5.88,50.62-3.2,8.47-5,15.35-12.05,20.12-20.35,3.9-6.78,6.39-14.4,7.18-22.4.81-8.24,3.37-16.14,7.6-23.51,7.88-13.71,20.63-23.5,35.91-27.57,15.21-4.05,31.08-1.94,44.7,5.95,19.94,11.55,31.55,33.46,29.2,58.38-.03.32-.07.65-.13.97-4.3,24.6-21.19,42.64-43.42,48.57-16.24,4.33-29.82.86-38.34-2.81-16.42-7.07-35.22-5.88-50.62,3.2-8.47,5-15.35,12.05-20.12,20.35-3.9,6.78-6.39,14.4-7.18,22.4-.82,8.24-3.37,16.15-7.6,23.5-7.88,13.71-20.63,23.5-35.91,27.57-15.21,4.05-31.08,1.94-44.7-5.95-19.95-11.55-31.55-33.46-29.2-58.38Zm142.43,175.79c-3.84,6.69-6.64,14.13-8.12,22.12-1.36,7.34-3.99,14.44-7.81,21.08-9.03,15.7-23.05,26.47-40.55,31.13-17.42,4.64-34.87,2.32-50.47-6.71-15.6-9.03-26.3-23.02-30.94-40.44-4.55-17.09-2.21-34.94,6.6-50.27h0c9.02-15.71,23.04-26.47,40.54-31.13,12.68-3.38,25.82-3.01,38,1.07,32.01,10.72,66.57-2.96,82.94-31.45,1.64-2.85,3.09-5.85,4.35-8.99.78-1.95,1.71-3.87,2.78-5.72,5.89-10.24,15.03-17.26,26.45-20.3,5.67-1.51,11.39-1.89,17-1.13,28.97,3.93,56.35-10.48,70.15-34.5,3.92-6.81,6.74-14.4,8.2-22.57,1.34-7.49,4-14.73,7.89-21.5,9.03-15.7,23.05-26.47,40.55-31.13,35.44-9.44,71.96,11.71,81.41,47.15,6.73,25.27-1.62,52.22-23.66,70.2-.41.34-.85.66-1.29.96-18.8,12.8-40.95,15.76-60.59,9.04-32.13-10.98-66.92,2.71-83.35,31.3-1.75,3.04-3.29,6.25-4.59,9.61-.81,2.08-1.79,4.13-2.93,6.11-5.89,10.24-15.03,17.26-26.45,20.3-5.54,1.48-11.13,1.87-16.61,1.18-28.74-3.62-55.8,10.75-69.5,34.59Zm284.9,39.45c-7.88,13.71-20.63,23.5-35.91,27.57-12.92,3.44-26.15,2.51-38.26-2.71-16.42-7.07-35.23-5.88-50.63,3.21-8.47,5-15.34,12.05-20.11,20.34-3.9,6.79-6.39,14.41-7.18,22.42-.81,8.24-3.37,16.16-7.6,23.52-7.88,13.71-20.63,23.5-35.91,27.57-31.39,8.37-63.74-10.37-72.11-41.76-4.03-15.14-1.96-30.95,5.85-44.53,7.88-13.71,20.63-23.5,35.91-27.57,12.92-3.44,26.15-2.51,38.26,2.71,16.42,7.07,35.23,5.88,50.63-3.21,8.47-5,15.34-12.05,20.11-20.34,3.9-6.79,6.39-14.41,7.18-22.42.81-8.24,3.37-16.16,7.61-23.52,7.88-13.71,20.63-23.5,35.91-27.57,15.21-4.05,31.08-1.94,44.7,5.95,13.62,7.89,23.35,20.61,27.4,35.81,4.03,15.14,1.96,30.95-5.85,44.53Z"/>
</svg>